<svg xmlns="http://www.w3.org/2000/svg" width="420" height="420" viewBox="0 0 420 420" fill="none">
  <g stroke-linecap="round" stroke-linejoin="round">
    <path d="M378 40C270 80 190 147 139 241c-22 41-36 84-43 130" stroke="#2F6F66" stroke-width="4"/>
    <path d="M339 63c-9 37-36 58-82 63 6-35 32-56 82-63Z" stroke="#2F6F66" stroke-width="3"/>
    <path d="M293 96c-11 40-42 63-93 69 7-39 38-62 93-69Z" stroke="#2F6F66" stroke-width="3"/>
    <path d="M244 140c-8 41-37 67-86 77 4-40 32-66 86-77Z" stroke="#2F6F66" stroke-width="3"/>
    <path d="M203 188c-10 43-41 71-94 82 6-43 36-71 94-82Z" stroke="#2F6F66" stroke-width="3"/>
    <path d="M159 251c-9 39-35 64-80 75 4-38 30-63 80-75Z" stroke="#2F6F66" stroke-width="3"/>
    <path d="M356 113c-33 8-56-1-70-27 31-10 55-1 70 27Z" stroke="#A8B5A0" stroke-width="3"/>
    <path d="M314 156c-37 11-64 1-80-29 36-12 63-2 80 29Z" stroke="#A8B5A0" stroke-width="3"/>
    <path d="M266 210c-38 12-67 2-87-30 38-12 67-2 87 30Z" stroke="#A8B5A0" stroke-width="3"/>
    <path d="M212 281c-34 11-61 2-80-27 34-12 61-3 80 27Z" stroke="#A8B5A0" stroke-width="3"/>
    <path d="M44 101c57 21 100 55 128 101" stroke="#D8B6B1" stroke-width="3"/>
    <path d="M78 121c10-28 31-40 62-37-8 28-29 41-62 37Z" stroke="#D8B6B1" stroke-width="2.5"/>
    <path d="M103 158c16-28 42-38 76-29-14 28-39 38-76 29Z" stroke="#D8B6B1" stroke-width="2.5"/>
    <path d="M130 203c19-25 44-32 75-20-17 25-42 32-75 20Z" stroke="#D8B6B1" stroke-width="2.5"/>
    <path d="M58 178c30-6 52 4 67 31-29 7-52-4-67-31Z" stroke="#D6C1A0" stroke-width="2.5"/>
  </g>
</svg>
